<svg width="88" height="100" viewBox="0 0 88 100" fill="none" xmlns="http://www.w3.org/2000/svg">
<g id="Frame" clip-path="url(#clip0_624_1189)">
<path id="_x31__1_" fill-rule="evenodd" clip-rule="evenodd" d="M80.8816 71.0114H75.0308C73.8451 71.0114 72.8844 70.05 72.8844 68.8645C72.8844 67.6791 73.846 66.7195 75.0308 66.7195H80.8816C82.4424 66.7195 83.7073 65.4548 83.7073 63.8943V18.8477H4.29273V63.8934C4.29273 65.4539 5.5576 66.7186 7.11842 66.7186H12.9629C14.1485 66.7186 15.1092 67.6791 15.1092 68.8645C15.1092 70.05 14.1485 71.0105 12.9629 71.0105H7.11842C3.18722 71.0114 0 67.8248 0 63.8943V7.11717C0 3.18666 3.18722 0 7.11842 0H80.8807C84.8119 0 88 3.18666 88 7.11808V63.8943C88 67.8248 84.8128 71.0114 80.8816 71.0114ZM83.7073 7.11717C83.7073 5.55935 82.4397 4.29197 80.8816 4.29197H7.11933C5.56124 4.29197 4.29364 5.55935 4.29364 7.11717V14.5557H83.7082V7.11717H83.7073ZM9.57987 6.98606C10.9249 6.98606 12.0185 8.07954 12.0185 9.42431C12.0185 10.7691 10.9249 11.8626 9.57987 11.8626C8.23486 11.8626 7.14119 10.7691 7.14119 9.42431C7.14119 8.07954 8.23486 6.98606 9.57987 6.98606ZM16.7793 6.98606C18.1243 6.98606 19.218 8.07954 19.218 9.42431C19.218 10.7691 18.1243 11.8626 16.7793 11.8626C15.4343 11.8626 14.3407 10.7691 14.3407 9.42431C14.3407 8.07954 15.4343 6.98606 16.7793 6.98606ZM23.9788 6.98606C25.3238 6.98606 26.4175 8.07954 26.4175 9.42431C26.4175 10.7691 25.3238 11.8626 23.9788 11.8626C22.6338 11.8626 21.5401 10.7691 21.5401 9.42431C21.5401 8.07954 22.6338 6.98606 23.9788 6.98606ZM23.1847 61.4287C24.2356 60.928 25.3557 60.6739 26.514 60.6739C28.1304 60.6739 29.6967 61.1783 30.998 62.0924L30.9916 37.3349C30.9925 35.2608 31.8002 33.3115 33.2673 31.8456C34.7334 30.3807 36.6831 29.5731 38.7557 29.5731H38.7575C40.831 29.574 42.7807 30.3816 44.2468 31.8484C45.7129 33.3151 46.5197 35.2644 46.5197 37.3376L46.5297 50.0951C48.8573 50.1225 51.0465 51.1968 52.4953 53.005C53.1136 52.8493 53.7483 52.771 54.3885 52.771C55.7235 52.771 57.0403 53.1143 58.195 53.7634C59.2012 54.3288 60.0718 55.1182 60.7347 56.0642C60.9824 56.0396 61.2319 56.0278 61.4796 56.0278C65.7605 56.0287 69.2428 59.5122 69.2419 63.7923L69.2373 80.2682C69.2355 85.5635 67.3951 90.4 64.054 93.8862C62.1963 95.8246 59.9051 97.3305 57.2461 98.3602C54.435 99.4482 51.214 100.001 47.6717 100.001H47.6626C43.4263 100 39.6381 99.1369 36.4053 97.4361C35.4182 96.9171 34.4702 96.3117 33.5878 95.6379C30.7084 93.4382 28.4245 90.4974 26.6051 86.6479C23.5271 80.1335 19.5586 71.8655 19.5176 71.7808C18.6243 69.907 18.5141 67.7984 19.2071 65.8445C19.9001 63.8879 21.3125 62.3201 23.1847 61.4287ZM23.2476 69.9954L23.2503 70.0017C23.416 70.3468 27.3354 78.5147 30.3432 84.8807C33.8355 92.271 39.5006 95.8646 47.6644 95.8674H47.6735C60.5225 95.8674 65.103 87.8088 65.1049 80.2673L65.1094 63.7914C65.1103 61.7902 63.4821 60.1613 61.4796 60.1604C61.0926 60.1604 60.7038 60.2251 60.324 60.3525C60.1109 60.4245 59.8897 60.4609 59.6656 60.4609C58.8206 60.4609 58.0684 59.9547 57.7506 59.1717C57.1914 57.795 55.8719 56.9046 54.3876 56.9046C53.7775 56.9046 53.1728 57.0594 52.6401 57.3534C52.335 57.521 51.9908 57.6102 51.6429 57.6102C51.4189 57.6102 51.1977 57.5738 50.9855 57.5028C50.4391 57.3197 49.9902 56.9119 49.7552 56.3856C49.1715 55.0763 47.8711 54.2296 46.4405 54.2296C46.0189 54.2296 45.5963 54.307 45.1829 54.46C44.9525 54.5455 44.7112 54.5883 44.4653 54.5883C44.041 54.5883 43.633 54.46 43.2852 54.2187C42.7306 53.8326 42.3991 53.1989 42.3982 52.5234L42.3864 37.3403C42.3873 35.3382 40.7591 33.7094 38.7566 33.7085C37.7877 33.7085 36.8761 34.0854 36.1904 34.771C35.5047 35.4566 35.1268 36.3679 35.1268 37.3367L35.135 68.9201C35.135 69.8925 34.4729 70.7219 33.5241 70.9359C33.3747 70.9696 33.2208 70.9869 33.0678 70.9869C32.2756 70.9869 31.5434 70.5243 31.202 69.8096L29.8032 66.8761C29.4645 66.165 28.9172 65.5959 28.2205 65.2299C27.6969 64.9541 27.1087 64.8084 26.5195 64.8084C25.9786 64.8084 25.4559 64.9268 24.9641 65.1617C24.089 65.5787 23.4279 66.3116 23.1046 67.2257C22.7795 68.1371 22.8314 69.1222 23.2476 69.9954Z" fill="#686868"/>
</g>
<defs>
<clipPath id="clip0_624_1189">
<rect width="88" height="100" fill="white"/>
</clipPath>
</defs>
</svg>
