<svg width="274" height="217" viewBox="0 0 274 217" fill="none" xmlns="http://www.w3.org/2000/svg">
<path d="M133.032 216.976C167.185 216.976 194.871 189.294 194.871 155.145C194.871 120.997 167.185 93.3137 133.032 93.3137C98.8791 93.3137 71.1929 120.997 71.1929 155.145C71.1929 189.294 98.8791 216.976 133.032 216.976Z" fill="#E8505B"/>
<path d="M163.503 129.071C164.306 129.709 152.732 145.249 137.709 163.766C134.497 167.662 131.426 171.394 128.591 174.819L127.339 176.33L125.993 174.96C114.254 162.868 106.223 153.87 106.789 153.303C107.356 152.736 116.332 160.742 128.45 172.504L125.875 172.646C128.662 169.174 131.662 165.395 134.827 161.475C149.874 142.911 162.7 128.433 163.503 129.071Z" fill="white"/>
<path d="M220.877 130.252C219.035 123.757 210.602 124.395 210.602 124.395L210.838 128.906C215.728 128.056 218.751 133.795 218.751 133.795L220.877 130.252Z" fill="#E8505B"/>
<path d="M41.7613 143.856C39.9189 137.361 31.4863 137.999 31.4863 137.999L31.7225 142.51C36.612 141.659 39.6355 147.375 39.6355 147.375L41.7613 143.856Z" fill="#E0E0E0"/>
<path d="M140.425 54.0139C150.228 56.9897 156.322 45.6768 156.322 45.6768L150.369 42.2759C147.464 49.1959 137.685 48.3929 137.685 48.3929L140.425 54.0139Z" fill="#E0E0E0"/>
<path d="M86.0737 66.177C81.515 66.6494 80.9717 72.3885 80.9717 72.3885L84.0188 72.7427C84.0188 69.389 88.1996 67.9956 88.1996 67.9956L86.0737 66.177Z" fill="#E8505B"/>
<path d="M273.953 108.004C274.614 103.469 269.205 101.533 269.205 101.533L268.095 104.39C271.354 105.217 271.638 109.61 271.638 109.61L273.953 108.004Z" fill="#E0E0E0"/>
<path d="M112.671 6.47127C113.332 1.93666 107.923 0 107.923 0L106.813 2.85775C110.073 3.68437 110.38 8.07728 110.38 8.07728L112.671 6.47127Z" fill="#E8505B"/>
<path d="M0.0474685 79.6392C-0.779256 86.7481 8.6454 88.4722 8.6454 88.4722L10.3461 83.8195C4.70075 83.2999 3.87402 76.6633 3.87402 76.6633L0.0474685 79.6392Z" fill="#E8505B"/>
<path d="M209.704 53.8721C214.287 54.1319 215.751 48.5817 215.751 48.5817L212.799 47.7314C212.255 51.0615 207.909 51.7228 207.909 51.7228L209.704 53.8721Z" fill="#E8505B"/>
<path d="M234.719 72.5302C234.719 72.7428 233.018 72.9081 230.939 72.9081C228.861 72.9081 227.16 72.7428 227.16 72.5302C227.16 72.3177 228.861 72.1523 230.939 72.1523C233.018 72.1523 234.719 72.3177 234.719 72.5302Z" fill="#E0E0E0"/>
<path d="M238.71 62.2329C238.923 62.2329 239.088 63.957 239.088 66.059C239.088 68.1846 238.923 69.8851 238.71 69.8851C238.498 69.8851 238.333 68.161 238.333 66.059C238.356 63.957 238.521 62.2329 238.71 62.2329Z" fill="#E0E0E0"/>
<path d="M242.986 72.2705C242.986 72.0579 244.687 71.8926 246.766 71.8926C248.844 71.8926 250.545 72.0579 250.545 72.2705C250.545 72.483 248.844 72.6483 246.766 72.6483C244.687 72.6483 242.986 72.483 242.986 72.2705Z" fill="#E0E0E0"/>
<path d="M238.971 82.5442C238.758 82.5442 238.593 80.8202 238.593 78.7182C238.593 76.5926 238.758 74.8921 238.971 74.8921C239.183 74.8921 239.349 76.6162 239.349 78.7182C239.349 80.8438 239.183 82.5442 238.971 82.5442Z" fill="#E0E0E0"/>
<path d="M245.088 78.1513C244.923 78.293 244.214 77.6789 243.459 76.7815C242.726 75.884 242.254 75.0574 242.396 74.9393C242.561 74.7976 243.27 75.4116 244.026 76.3091C244.781 77.183 245.254 78.0096 245.088 78.1513Z" fill="#E0E0E0"/>
<path d="M244.734 66.484C244.875 66.6257 244.379 67.3815 243.6 68.1609C242.82 68.9402 242.088 69.4598 241.946 69.3181C241.805 69.1764 242.301 68.4206 243.08 67.6413C243.86 66.8619 244.592 66.3423 244.734 66.484Z" fill="#E0E0E0"/>
<path d="M236.065 69.4599C235.924 69.6252 235.239 69.2473 234.506 68.6333C233.774 68.0192 233.278 67.4051 233.42 67.2398C233.561 67.0745 234.246 67.4524 234.979 68.0664C235.711 68.6805 236.207 69.2946 236.065 69.4599Z" fill="#E0E0E0"/>
<path d="M235.734 74.585C235.876 74.7267 235.451 75.4588 234.742 76.2146C234.034 76.9704 233.349 77.49 233.207 77.3483C233.065 77.2066 233.49 76.4744 234.199 75.7186C234.884 74.9629 235.593 74.4669 235.734 74.585Z" fill="#E0E0E0"/>
<path d="M28.9356 51.4631C28.9356 51.6757 27.2349 51.841 25.1563 51.841C23.0776 51.841 21.377 51.6757 21.377 51.4631C21.377 51.2505 23.0776 51.0852 25.1563 51.0852C27.2349 51.1088 28.9356 51.2742 28.9356 51.4631Z" fill="#E8505B"/>
<path d="M32.9512 41.1895C33.1638 41.1895 33.3291 42.9135 33.3291 45.0155C33.3291 47.1411 33.1638 48.8416 32.9512 48.8416C32.7386 48.8416 32.5732 47.1175 32.5732 45.0155C32.5732 42.9135 32.7386 41.1895 32.9512 41.1895Z" fill="#E8505B"/>
<path d="M37.2266 51.227C37.2266 51.0144 38.9273 50.8491 41.0059 50.8491C43.0845 50.8491 44.7852 51.0144 44.7852 51.227C44.7852 51.4396 43.0845 51.6049 41.0059 51.6049C38.9036 51.5813 37.2266 51.4159 37.2266 51.227Z" fill="#E8505B"/>
<path d="M33.2109 61.5008C32.9984 61.5008 32.833 59.7767 32.833 57.6747C32.833 55.5491 32.9984 53.8486 33.2109 53.8486C33.4235 53.8486 33.5889 55.5727 33.5889 57.6747C33.5889 59.7767 33.4235 61.5008 33.2109 61.5008Z" fill="#E8505B"/>
<path d="M39.3053 57.0842C39.1399 57.2259 38.4313 56.6118 37.6754 55.7143C36.9432 54.8169 36.4708 53.9902 36.6125 53.8721C36.7778 53.7304 37.4865 54.3445 38.2423 55.242C38.9982 56.1394 39.4706 56.9661 39.3053 57.0842Z" fill="#E8505B"/>
<path d="M38.9745 45.4406C39.1162 45.5823 38.6201 46.3381 37.8407 47.1175C37.0612 47.8968 36.3289 48.4164 36.1872 48.2747C36.0455 48.133 36.5415 47.3773 37.321 46.5979C38.0769 45.7949 38.8091 45.2989 38.9745 45.4406Z" fill="#E8505B"/>
<path d="M30.3055 48.4164C30.1637 48.5818 29.4787 48.2039 28.7465 47.5898C28.0143 46.9758 27.5182 46.3617 27.6599 46.1964C27.8017 46.031 28.4867 46.4089 29.2189 47.023C29.9512 47.6371 30.4236 48.2511 30.3055 48.4164Z" fill="#E8505B"/>
<path d="M29.9511 53.5416C30.0928 53.6833 29.6676 54.4155 28.959 55.1713C28.2504 55.927 27.5654 56.4466 27.4236 56.3049C27.2819 56.1632 27.7071 55.4311 28.4157 54.6753C29.1243 53.9195 29.8093 53.3999 29.9511 53.5416Z" fill="#E8505B"/>
</svg>
